<svg xmlns="http://www.w3.org/2000/svg"  viewBox="0 0 100 100" width="50px" height="50px"><circle cx="77" cy="13" r="1" fill="#f1bc19"/><circle cx="50" cy="50" r="37" fill="#e6edb7"/><circle cx="83" cy="15" r="4" fill="#f1bc19"/><circle cx="87" cy="24" r="2" fill="#88ae45"/><circle cx="81" cy="76" r="2" fill="#fbcd59"/><circle cx="15" cy="63" r="4" fill="#fbcd59"/><circle cx="25" cy="87" r="2" fill="#88ae45"/><circle cx="18.5" cy="51.5" r="2.5" fill="#fff"/><circle cx="79.5" cy="33.5" r="1.5" fill="#fff"/><path fill="#605e60" d="M66.3,72.3H33.7c-3.314,0-6-2.686-6-6V33.7c0-3.314,2.686-6,6-6h32.6c3.314,0,6,2.686,6,6v32.6	C72.3,69.614,69.614,72.3,66.3,72.3z"/><path fill="#472b29" d="M66.3,73H33.7c-3.694,0-6.7-3.006-6.7-6.7V33.7c0-3.694,3.006-6.7,6.7-6.7h32.6	c3.694,0,6.7,3.006,6.7,6.7v32.6C73,69.994,69.994,73,66.3,73z M33.7,28.4c-2.923,0-5.3,2.377-5.3,5.3v32.6	c0,2.922,2.377,5.3,5.3,5.3h32.6c2.923,0,5.3-2.377,5.3-5.3V33.7c0-2.922-2.377-5.3-5.3-5.3H33.7z"/><path fill="#ff2990" d="M41.17,41.17C38.9,43.43,37.5,46.56,37.5,50L35,51l-2.5-1c0-4.82,1.96-9.2,5.13-12.37L41.17,41.17z"/><path fill="#fd2a87" d="M41.17,58.83L40,61l-2.37,1.37C34.46,59.2,32.5,54.82,32.5,50h5C37.5,53.44,38.9,56.57,41.17,58.83z"/><path fill="#fd2b76" d="M50,62.5l1,2.5l-1,2.5c-4.82,0-9.2-1.96-12.37-5.13l3.54-3.54C43.43,61.1,46.56,62.5,50,62.5z"/><path fill="#ff275c" d="M62.37,62.37C59.2,65.54,54.82,67.5,50,67.5v-5c3.44,0,6.57-1.4,8.83-3.67L61,60L62.37,62.37z"/><path fill="#fd273f" d="M67.5,50c0,4.82-1.96,9.2-5.13,12.37l-3.54-3.54c2.27-2.26,3.67-5.39,3.67-8.83l2.5-1L67.5,50z"/><path fill="#fe2725" d="M67.5,50h-5c0-3.44-1.4-6.57-3.67-8.83L60,39l2.37-1.37C65.54,40.8,67.5,45.18,67.5,50z"/><path fill="#fc281c" d="M62.37,37.63l-3.54,3.54C56.57,38.9,53.44,37.5,50,37.5v-5C54.82,32.5,59.2,34.46,62.37,37.63z"/><path fill="#ff2990" d="M50,32.5l1,2.342L50,37.5c-3.44,0-6.57,1.4-8.83,3.67L39,40l-1.37-2.37	C40.8,34.46,45.18,32.5,50,32.5z"/><path fill="#d2fd0d" d="M44.7,44.7c-1.36,1.36-2.2,3.23-2.2,5.3L40,51l-2.5-1c0-3.44,1.4-6.57,3.67-8.83L44.7,44.7z"/><path fill="#c3fe02" d="M44.7,55.3L44,58l-2.83,0.83C38.9,56.57,37.5,53.44,37.5,50h5C42.5,52.07,43.34,53.94,44.7,55.3z"/><path fill="#a4ff04" d="M58.83,58.83C56.57,61.1,53.44,62.5,50,62.5v-5c2.07,0,3.94-0.84,5.3-2.2L58,56L58.83,58.83z"/><path fill="#9eff04" d="M62.5,50h-5c0-2.07-0.84-3.94-2.2-5.3L57,42l1.83-0.83C61.1,43.43,62.5,46.56,62.5,50z"/><path fill="#d6ff03" d="M50,37.5l1,2.5l-1,2.5c-2.07,0-3.94,0.84-5.3,2.2L42,44l-0.83-2.83C43.43,38.9,46.56,37.5,50,37.5z"/><path fill="#97fd04" d="M58.83,41.17L55.3,44.7c-1.36-1.36-3.23-2.2-5.3-2.2v-5C53.44,37.5,56.57,38.9,58.83,41.17z"/><path fill="#9cff06" d="M62.5,50c0,3.44-1.4,6.57-3.67,8.83L55.3,55.3c1.36-1.36,2.2-3.23,2.2-5.3l2.5-1L62.5,50z"/><path fill="#b6fe06" d="M50,57.5l1,2.5l-1,2.5c-3.44,0-6.57-1.4-8.83-3.67l3.53-3.53C46.06,56.66,47.93,57.5,50,57.5z"/><path fill="#bf1b11" d="M54,35c0,1.1-0.45,2.09-1.17,2.82c-0.91-0.21-1.86-0.32-2.83-0.32l1-2.5l-1-2.5	c1.15,0,2.27,0.11,3.36,0.33C53.76,33.46,54,34.2,54,35z"/><path fill="#472b29" d="M34.732,41.941c-0.083,0-0.167-0.021-0.245-0.064c-0.24-0.135-0.326-0.44-0.19-0.681	c1.004-1.788,2.297-3.382,3.843-4.737c0.209-0.181,0.523-0.161,0.706,0.046c0.182,0.208,0.161,0.523-0.046,0.706	c-1.461,1.281-2.683,2.786-3.632,4.476C35.076,41.85,34.907,41.941,34.732,41.941z"/><path fill="#472b29" d="M50,68c-9.925,0-18-8.075-18-18c0-2.306,0.431-4.552,1.279-6.677	c0.103-0.256,0.394-0.381,0.649-0.279c0.257,0.103,0.381,0.394,0.278,0.65C33.406,45.7,33,47.822,33,50c0,9.374,7.626,17,17,17	s17-7.626,17-17s-7.626-17-17-17c-2.55,0-5.001,0.55-7.285,1.636c-0.25,0.116-0.549,0.012-0.666-0.237	c-0.119-0.249-0.013-0.547,0.236-0.666C44.705,32.583,47.301,32,50,32c9.925,0,18,8.075,18,18S59.925,68,50,68z"/><path fill="#03fca8" d="M50,42.5l1,2.5l-1,2.5c-0.69,0-1.32,0.28-1.77,0.73L46,47l-1.3-2.3C46.06,43.34,47.93,42.5,50,42.5z"/><path fill="#05feac" d="M48.23,48.23c-0.45,0.45-0.73,1.08-0.73,1.77L45,51l-2.5-1c0-2.07,0.84-3.94,2.2-5.3L48.23,48.23z"/><path fill="#06feca" d="M48.23,51.77L47,54l-2.3,1.3c-1.36-1.36-2.2-3.23-2.2-5.3h5C47.5,50.69,47.78,51.32,48.23,51.77z"/><path fill="#05fed6" d="M50,52.5l1,2.5l-1,2.5c-2.07,0-3.94-0.84-5.3-2.2l3.53-3.53C48.68,52.22,49.31,52.5,50,52.5z"/><path fill="#04f8ec" d="M55.3,55.3c-1.36,1.36-3.23,2.2-5.3,2.2v-5c0.69,0,1.32-0.28,1.77-0.73L54,52L55.3,55.3z"/><path fill="#03ecf1" d="M57.5,50c0,2.07-0.84,3.94-2.2,5.3l-3.53-3.53c0.45-0.45,0.73-1.08,0.73-1.77l2.5-1L57.5,50z"/><path fill="#04e3f5" d="M57.5,50h-5c0-0.69-0.28-1.32-0.73-1.77L53,46l2.3-1.3C56.66,46.06,57.5,47.93,57.5,50z"/><path fill="#08d7df" d="M55.3,44.7l-3.53,3.53c-0.45-0.45-1.08-0.73-1.77-0.73v-5C52.07,42.5,53.94,43.34,55.3,44.7z"/><path fill="#0b9a9e" d="M54,45c0,1.49-0.81,2.79-2.02,3.47C51.52,47.88,50.8,47.5,50,47.5l1-2.62l-1-2.38	c1.34,0,2.6,0.35,3.69,0.98C53.89,43.95,54,44.46,54,45z"/><path fill="#69ae03" d="M54,40c0,1.19-0.52,2.26-1.35,2.99c-0.82-0.32-1.72-0.49-2.65-0.49l1-2.5l-1-2.5	c1.2,0,2.35,0.17,3.45,0.49C53.8,38.58,54,39.27,54,40z"/><path fill="#472b29" d="M62.003,54.001c-0.046,0-0.093-0.006-0.14-0.02c-0.266-0.077-0.418-0.354-0.341-0.62	C61.84,52.273,62,51.142,62,50c0-0.155-0.003-0.309-0.009-0.462c-0.01-0.276,0.206-0.508,0.481-0.518c0.007,0,0.013,0,0.019,0	c0.268,0,0.49,0.212,0.5,0.481C62.997,49.667,63,49.833,63,50c0,1.237-0.174,2.462-0.517,3.641	C62.42,53.859,62.22,54.001,62.003,54.001z"/><path fill="#472b29" d="M50,63c-7.168,0-13-5.832-13-13s5.832-13,13-13c6.158,0,11.517,4.374,12.74,10.4	c0.055,0.271-0.12,0.535-0.391,0.59c-0.271,0.049-0.534-0.12-0.59-0.391C60.631,42.037,55.685,38,50,38c-6.617,0-12,5.383-12,12	s5.383,12,12,12c4.6,0,8.724-2.563,10.764-6.689c0.123-0.249,0.425-0.347,0.67-0.227c0.247,0.123,0.349,0.422,0.227,0.67	C59.45,60.224,54.982,63,50,63z"/><path fill="#472b29" d="M50,58c-0.896,0-1.774-0.147-2.613-0.437c-0.261-0.09-0.399-0.375-0.31-0.636	c0.091-0.26,0.376-0.399,0.636-0.31C48.446,56.872,49.216,57,50,57c3.859,0,7-3.14,7-7s-3.141-7-7-7s-7,3.14-7,7	c0,1.87,0.728,3.627,2.05,4.95c0.195,0.195,0.195,0.512,0,0.707s-0.512,0.195-0.707,0C42.832,54.146,42,52.137,42,50	c0-4.411,3.589-8,8-8s8,3.589,8,8S54.411,58,50,58z"/><path fill="#472b29" d="M50,53c-1.654,0-3-1.346-3-3s1.346-3,3-3s3,1.346,3,3S51.654,53,50,53z M50,48c-1.103,0-2,0.897-2,2	s0.897,2,2,2s2-0.897,2-2S51.103,48,50,48z"/><path fill="#03fca8" d="M50,42.5v5c1.381,0,2.5-1.119,2.5-2.5S51.381,42.5,50,42.5z"/><path fill="#ff2990" d="M50,32.5v5c1.381,0,2.5-1.119,2.5-2.5S51.381,32.5,50,32.5z"/><path fill="#d6ff03" d="M50,37.5v5c1.381,0,2.5-1.119,2.5-2.5S51.381,37.5,50,37.5z"/><path fill="#472b29" d="M50,43c-0.276,0-0.5-0.224-0.5-0.5S49.724,42,50,42c1.103,0,2-0.897,2-2s-0.897-2-2-2	c-0.276,0-0.5-0.224-0.5-0.5S49.724,37,50,37c1.654,0,3,1.346,3,3S51.654,43,50,43z"/><path fill="#472b29" d="M50,38c-0.276,0-0.5-0.224-0.5-0.5S49.724,37,50,37c1.103,0,2-0.897,2-2s-0.897-2-2-2	c-0.276,0-0.5-0.224-0.5-0.5S49.724,32,50,32c1.654,0,3,1.346,3,3S51.654,38,50,38z"/><path fill="#472b29" d="M50,48c-0.276,0-0.5-0.224-0.5-0.5S49.724,47,50,47c1.103,0,2-0.897,2-2s-0.897-2-2-2	c-0.276,0-0.5-0.224-0.5-0.5S49.724,42,50,42c1.654,0,3,1.346,3,3S51.654,48,50,48z"/></svg>